<mxfile host="Electron" agent="Mozilla/5.0 (Windows NT 10.0; Win64; x64) AppleWebKit/537.36 (KHTML, like Gecko) draw.io/24.7.8 Chrome/128.0.6613.36 Electron/32.0.1 Safari/537.36" version="24.7.8">
  <diagram name="Page-1" id="03018318-947c-dd8e-b7a3-06fadd420f32">
    <mxGraphModel dx="1120" dy="532" grid="1" gridSize="10" guides="1" tooltips="1" connect="1" arrows="1" fold="1" page="1" pageScale="1" pageWidth="1100" pageHeight="850" background="none" math="0" shadow="0">
      <root>
        <mxCell id="0" />
        <mxCell id="1" parent="0" />
        <mxCell id="677b7b8949515195-1" value="" style="whiteSpace=wrap;html=1;rounded=0;shadow=0;labelBackgroundColor=none;strokeColor=#000000;strokeWidth=1;fillColor=none;fontFamily=Verdana;fontSize=12;fontColor=#000000;align=center;comic=1;" parent="1" vertex="1">
          <mxGeometry x="20" y="40" width="1060" height="930" as="geometry" />
        </mxCell>
        <mxCell id="677b7b8949515195-2" value="LOGO" style="whiteSpace=wrap;html=1;rounded=0;shadow=0;labelBackgroundColor=none;strokeWidth=1;fontFamily=Verdana;fontSize=28;align=center;comic=1;" parent="1" vertex="1">
          <mxGeometry x="40" y="60" width="190" height="50" as="geometry" />
        </mxCell>
        <mxCell id="677b7b8949515195-3" value="Search" style="strokeWidth=1;shadow=0;dashed=0;align=center;html=1;shape=mxgraph.mockup.forms.searchBox;strokeColor=#999999;mainText=;strokeColor2=#008cff;fontColor=#666666;fontSize=17;align=left;spacingLeft=3;rounded=0;labelBackgroundColor=none;comic=1;" parent="1" vertex="1">
          <mxGeometry x="840" y="95" width="220" height="30" as="geometry" />
        </mxCell>
        <mxCell id="677b7b8949515195-9" value="" style="line;strokeWidth=1;html=1;rounded=0;shadow=0;labelBackgroundColor=none;fillColor=none;fontFamily=Verdana;fontSize=14;fontColor=#000000;align=center;comic=1;" parent="1" vertex="1">
          <mxGeometry x="20" y="140" width="1060" height="10" as="geometry" />
        </mxCell>
        <mxCell id="677b7b8949515195-10" value="" style="whiteSpace=wrap;html=1;rounded=0;shadow=0;labelBackgroundColor=none;strokeWidth=1;fillColor=none;fontFamily=Verdana;fontSize=12;align=center;comic=1;" parent="1" vertex="1">
          <mxGeometry x="30" y="160" width="1040" height="50" as="geometry" />
        </mxCell>
        <mxCell id="677b7b8949515195-11" value="Home" style="text;html=1;points=[];align=left;verticalAlign=top;spacingTop=-4;fontSize=14;fontFamily=Verdana" parent="1" vertex="1">
          <mxGeometry x="50" y="175" width="60" height="20" as="geometry" />
        </mxCell>
        <mxCell id="677b7b8949515195-12" value="RegisterLogin" style="text;html=1;points=[];align=left;verticalAlign=top;spacingTop=-4;fontSize=14;fontFamily=Verdana" parent="1" vertex="1">
          <mxGeometry x="160" y="175" width="150" height="20" as="geometry" />
        </mxCell>
        <mxCell id="677b7b8949515195-14" value="Search for a Business" style="text;html=1;points=[];align=left;verticalAlign=top;spacingTop=-4;fontSize=14;fontFamily=Verdana" parent="1" vertex="1">
          <mxGeometry x="320" y="175" width="160" height="20" as="geometry" />
        </mxCell>
        <mxCell id="677b7b8949515195-15" value="&lt;div style=&quot;text-align: justify&quot;&gt;&lt;p style=&quot;font-size: large; font-family: &amp;quot;Times New Roman&amp;quot;, Times, serif; text-indent: 2%; font-weight: 700; text-align: start;&quot; class=&quot;paragraph_style&quot;&gt;Use this form to submit any type of correction. First, select the type of correction, such as add business or update a business. Then fill in the rest of the form so that we know who is submitting the corrected information.&amp;nbsp;&lt;/p&gt;&lt;p style=&quot;font-size: large; font-family: &amp;quot;Times New Roman&amp;quot;, Times, serif; text-indent: 2%; font-weight: 700; text-align: start;&quot; class=&quot;paragraph_style&quot;&gt;&lt;font color=&quot;#ff0000&quot;&gt;You must be a registered user in order to submit a correction.&lt;/font&gt;&lt;/p&gt;&lt;/div&gt;" style="whiteSpace=wrap;html=1;rounded=0;shadow=0;labelBackgroundColor=none;strokeWidth=1;fillColor=none;fontFamily=Verdana;fontSize=12;align=center;verticalAlign=top;spacing=10;comic=1;" parent="1" vertex="1">
          <mxGeometry x="30" y="230" width="1040" height="130" as="geometry" />
        </mxCell>
        <mxCell id="ubhy5sFj4Xcip8Dqailu-1" value="&lt;b&gt;&lt;font style=&quot;font-size: 36px;&quot;&gt;Patriot Thanks&lt;/font&gt;&lt;/b&gt;&lt;div&gt;&lt;b&gt;&lt;font style=&quot;font-size: 36px;&quot;&gt;Submit a Correction&lt;/font&gt;&lt;/b&gt;&lt;/div&gt;" style="text;html=1;align=center;verticalAlign=middle;whiteSpace=wrap;rounded=0;" parent="1" vertex="1">
          <mxGeometry x="340" y="52.5" width="420" height="65" as="geometry" />
        </mxCell>
        <mxCell id="ubhy5sFj4Xcip8Dqailu-2" value="&lt;span style=&quot;background-color: rgb(0, 0, 0);&quot;&gt;&lt;font color=&quot;#ffffff&quot;&gt;Submit a Correction&lt;/font&gt;&lt;/span&gt;" style="text;html=1;points=[];align=left;verticalAlign=top;spacingTop=-4;fontSize=14;fontFamily=Verdana" parent="1" vertex="1">
          <mxGeometry x="520" y="175" width="160" height="20" as="geometry" />
        </mxCell>
        <mxCell id="ubhy5sFj4Xcip8Dqailu-3" value="About Us" style="text;html=1;points=[];align=left;verticalAlign=top;spacingTop=-4;fontSize=14;fontFamily=Verdana" parent="1" vertex="1">
          <mxGeometry x="720" y="175" width="60" height="20" as="geometry" />
        </mxCell>
        <mxCell id="ubhy5sFj4Xcip8Dqailu-4" value="Contact Us" style="text;html=1;points=[];align=left;verticalAlign=top;spacingTop=-4;fontSize=14;fontFamily=Verdana" parent="1" vertex="1">
          <mxGeometry x="840" y="175" width="60" height="20" as="geometry" />
        </mxCell>
        <mxCell id="ubhy5sFj4Xcip8Dqailu-5" value="" style="line;strokeWidth=1;html=1;rounded=0;shadow=0;labelBackgroundColor=none;fillColor=none;fontFamily=Verdana;fontSize=14;fontColor=#000000;align=center;comic=1;" parent="1" vertex="1">
          <mxGeometry x="20" y="850" width="1060" height="10" as="geometry" />
        </mxCell>
        <mxCell id="ubhy5sFj4Xcip8Dqailu-6" value="Copyright footer&lt;div&gt;&lt;br&gt;&lt;/div&gt;&lt;div&gt;contact: email&lt;/div&gt;" style="text;html=1;align=center;verticalAlign=middle;whiteSpace=wrap;rounded=0;" parent="1" vertex="1">
          <mxGeometry x="300" y="870" width="440" height="70" as="geometry" />
        </mxCell>
        <mxCell id="cZIuqIdhak4Xa5vrpxzf-1" value="&lt;font style=&quot;font-size: 24px;&quot;&gt;Submit a Correction&lt;/font&gt;" style="text;html=1;align=center;verticalAlign=middle;whiteSpace=wrap;rounded=0;" parent="1" vertex="1">
          <mxGeometry x="80" y="370" width="240" height="30" as="geometry" />
        </mxCell>
        <mxCell id="cZIuqIdhak4Xa5vrpxzf-2" value="Add a Business" style="shape=ellipse;fillColor=#eeeeee;strokeColor=#999999;gradientColor=#cccccc;html=1;align=left;spacingLeft=4;fontSize=17;fontColor=#666666;labelPosition=right;shadow=0;" parent="1" vertex="1">
          <mxGeometry x="40" y="425" width="15" height="15" as="geometry" />
        </mxCell>
        <mxCell id="cZIuqIdhak4Xa5vrpxzf-3" value="Update a Business" style="shape=ellipse;fillColor=#eeeeee;strokeColor=#999999;gradientColor=#cccccc;html=1;align=left;spacingLeft=4;fontSize=17;fontColor=#666666;labelPosition=right;shadow=0;" parent="1" vertex="1">
          <mxGeometry x="220" y="425" width="15" height="15" as="geometry" />
        </mxCell>
        <mxCell id="cZIuqIdhak4Xa5vrpxzf-5" value="Business Name" style="text;html=1;align=left;verticalAlign=middle;whiteSpace=wrap;rounded=0;" parent="1" vertex="1">
          <mxGeometry x="40" y="460" width="100" height="30" as="geometry" />
        </mxCell>
        <mxCell id="cZIuqIdhak4Xa5vrpxzf-6" value="Business Address" style="text;html=1;align=left;verticalAlign=middle;whiteSpace=wrap;rounded=0;" parent="1" vertex="1">
          <mxGeometry x="40" y="500" width="100" height="30" as="geometry" />
        </mxCell>
        <mxCell id="cZIuqIdhak4Xa5vrpxzf-7" value="Business Information" style="text;html=1;align=left;verticalAlign=middle;whiteSpace=wrap;rounded=0;" parent="1" vertex="1">
          <mxGeometry x="40" y="540" width="120" height="30" as="geometry" />
        </mxCell>
        <mxCell id="cZIuqIdhak4Xa5vrpxzf-8" value="&lt;div&gt;&lt;font color=&quot;#999999&quot;&gt;Place information about discounts/incentives, and who qualifies for them.&lt;/font&gt;&lt;div&gt;&lt;font color=&quot;#999999&quot;&gt;&lt;br&gt;&lt;/font&gt;&lt;/div&gt;&lt;div&gt;&lt;font color=&quot;#999999&quot;&gt;&lt;br&gt;&lt;/font&gt;&lt;/div&gt;&lt;div&gt;&lt;font color=&quot;#999999&quot;&gt;&lt;br&gt;&lt;/font&gt;&lt;/div&gt;&lt;div&gt;&lt;font color=&quot;#999999&quot;&gt;&lt;br&gt;&lt;/font&gt;&lt;/div&gt;&lt;div&gt;&lt;font color=&quot;#999999&quot;&gt;&lt;br&gt;&lt;/font&gt;&lt;/div&gt;&lt;div&gt;&lt;font color=&quot;#999999&quot;&gt;&lt;br&gt;&lt;/font&gt;&lt;/div&gt;&lt;div&gt;&lt;br&gt;&lt;/div&gt;&lt;/div&gt;" style="whiteSpace=wrap;html=1;align=left;" parent="1" vertex="1">
          <mxGeometry x="160" y="540" width="320" height="130" as="geometry" />
        </mxCell>
        <mxCell id="cZIuqIdhak4Xa5vrpxzf-10" value="User Name" style="text;html=1;align=left;verticalAlign=middle;whiteSpace=wrap;rounded=0;" parent="1" vertex="1">
          <mxGeometry x="40" y="690" width="100" height="30" as="geometry" />
        </mxCell>
        <mxCell id="cZIuqIdhak4Xa5vrpxzf-11" value="********" style="strokeWidth=1;shadow=0;dashed=0;align=center;html=1;shape=mxgraph.mockup.forms.pwField;strokeColor=#999999;mainText=;align=left;fontColor=#666666;fontSize=17;spacingLeft=3;" parent="1" vertex="1">
          <mxGeometry x="160" y="730" width="150" height="30" as="geometry" />
        </mxCell>
        <mxCell id="cZIuqIdhak4Xa5vrpxzf-12" value="&lt;font color=&quot;#999999&quot;&gt;You email address&lt;/font&gt;" style="whiteSpace=wrap;html=1;align=left;" parent="1" vertex="1">
          <mxGeometry x="120" y="690" width="360" height="30" as="geometry" />
        </mxCell>
        <mxCell id="cZIuqIdhak4Xa5vrpxzf-13" value="Password" style="text;html=1;align=left;verticalAlign=middle;whiteSpace=wrap;rounded=0;" parent="1" vertex="1">
          <mxGeometry x="40" y="730" width="100" height="30" as="geometry" />
        </mxCell>
        <mxCell id="cZIuqIdhak4Xa5vrpxzf-14" value="&lt;font color=&quot;#999999&quot;&gt;Business name&lt;/font&gt;" style="whiteSpace=wrap;html=1;align=left;" parent="1" vertex="1">
          <mxGeometry x="160" y="460" width="360" height="30" as="geometry" />
        </mxCell>
        <mxCell id="cZIuqIdhak4Xa5vrpxzf-15" value="&lt;font color=&quot;#999999&quot;&gt;Business Address&lt;/font&gt;" style="whiteSpace=wrap;html=1;align=left;" parent="1" vertex="1">
          <mxGeometry x="160" y="500" width="360" height="30" as="geometry" />
        </mxCell>
        <mxCell id="cZIuqIdhak4Xa5vrpxzf-16" value="" style="verticalLabelPosition=bottom;shadow=0;dashed=0;align=center;html=1;verticalAlign=top;strokeWidth=1;shape=mxgraph.mockup.graphics.simpleIcon;strokeColor=#999999;" parent="1" vertex="1">
          <mxGeometry x="560" y="400" width="480" height="400" as="geometry" />
        </mxCell>
        <mxCell id="3PhwrUJtWBVnk5g0CWk_-1" value="Submit" style="strokeWidth=1;shadow=0;dashed=0;align=center;html=1;shape=mxgraph.mockup.buttons.button;strokeColor=#000000;fontColor=#ffffff;mainText=;buttonStyle=round;fontSize=17;fontStyle=1;fillColor=#ff0000;whiteSpace=wrap;verticalAlign=middle;fontFamily=Helvetica;" vertex="1" parent="1">
          <mxGeometry x="80" y="780" width="150" height="50" as="geometry" />
        </mxCell>
      </root>
    </mxGraphModel>
  </diagram>
</mxfile>
